<svg width="44" height="43" viewBox="0 0 44 43" fill="none" xmlns="http://www.w3.org/2000/svg">
<path d="M13.6856 23.4096V6.29096C13.6856 5.48975 14.06 4.72137 14.7265 4.15483C15.393 3.5883 16.297 3.27002 17.2396 3.27002C18.1822 3.27002 19.0862 3.5883 19.7527 4.15483C20.4192 4.72137 20.7936 5.48975 20.7936 6.29096V21.3956M20.7936 20.3887V16.3607C20.7936 15.5595 21.1681 14.7912 21.8346 14.2246C22.5011 13.6581 23.4051 13.3398 24.3477 13.3398C25.2903 13.3398 26.1943 13.6581 26.8608 14.2246C27.5273 14.7912 27.9017 15.5595 27.9017 16.3607V21.3956M27.9017 18.3747C27.9017 17.5735 28.2762 16.8051 28.9427 16.2386C29.6092 15.672 30.5132 15.3538 31.4558 15.3538C32.3984 15.3538 33.3023 15.672 33.9689 16.2386C34.6354 16.8051 35.0098 17.5735 35.0098 18.3747V21.3956" stroke="#0F1251" stroke-width="1.87345" stroke-linecap="round" stroke-linejoin="round"/>
<path d="M35.0098 20.3882C35.0098 19.587 35.3843 18.8186 36.0508 18.2521C36.7173 17.6856 37.6213 17.3673 38.5639 17.3673C39.5064 17.3673 40.4104 17.6856 41.0769 18.2521C41.7435 18.8186 42.1179 19.587 42.1179 20.3882V29.451C42.1179 32.6558 40.6201 35.7294 37.9541 37.9955C35.288 40.2617 31.6721 41.5348 27.9017 41.5348H23.163H23.6558C21.3015 41.5351 18.9839 41.0384 16.9112 40.0893C14.8384 39.1402 13.0755 37.7684 11.7806 36.0971L11.3162 35.4929C10.577 34.5282 7.9825 30.6836 3.53047 23.9569C3.07662 23.2713 2.95539 22.4621 3.19256 21.7016C3.42973 20.9411 4.00659 20.2893 4.80045 19.8847C5.64602 19.4535 6.63687 19.2747 7.61563 19.3769C8.59438 19.4791 9.50491 19.8563 10.2026 20.4486L13.6856 23.4091M6.57747 3.26957L4.20811 1.25562M4.20811 11.3254H1.83875M27.9017 3.26957L30.2711 1.25562M30.2711 9.31145H32.6404" stroke="#0F1251" stroke-width="1.87345" stroke-linecap="round" stroke-linejoin="round"/>
</svg>
