<svg width="42" height="42" viewBox="0 0 42 42" fill="none" xmlns="http://www.w3.org/2000/svg">
<path d="M30.5219 13.7947C33.7329 14.4183 36.6069 16.2813 38.5805 19.0187C40.5542 21.7561 41.4852 25.1704 41.1912 28.5925C40.8972 32.0146 39.3993 35.1978 36.991 37.5183C34.5828 39.8387 31.4379 41.1291 28.1727 41.1366C25.1847 41.1366 22.362 40.0765 20.0974 38.2065V39.5464C20.0973 39.9313 19.9644 40.3031 19.7236 40.5928C19.4828 40.8825 19.1503 41.0704 18.7878 41.1217L18.5863 41.1366C18.2208 41.1371 17.8675 40.9981 17.5919 40.7455C17.3163 40.4929 17.137 40.1437 17.0873 39.7627L17.0732 39.5464V34.2481C17.0732 33.8638 17.2055 33.4926 17.4455 33.203C17.6855 32.9134 18.017 32.725 18.3788 32.6728L18.5843 32.6579H23.6313C24.014 32.6586 24.3822 32.812 24.6616 33.0872C24.9409 33.3625 25.1107 33.739 25.1365 34.1408C25.1623 34.5425 25.0423 34.9397 24.8007 35.252C24.5591 35.5643 24.2139 35.7685 23.8348 35.8234L23.6313 35.8382L22.1323 35.8425C23.3125 36.7704 24.6716 37.4147 26.114 37.7299C27.5565 38.0451 29.047 38.0236 30.4807 37.6668C31.9143 37.3101 33.2562 36.6268 34.4117 35.6651C35.5671 34.7034 36.5081 33.4867 37.1682 32.1008C37.8284 30.7149 38.1917 29.1935 38.2324 27.6438C38.2732 26.0942 37.9905 24.5539 37.4042 23.1317C36.8179 21.7095 35.9424 20.4399 34.8392 19.4124C33.7361 18.3849 32.4322 17.6245 31.0195 17.1848L30.5219 13.7947ZM26.1196 0.861524C27.2821 0.860899 28.4091 1.28347 29.3093 2.05756C30.2095 2.83165 30.8276 3.90959 31.0586 5.10855C31.2897 6.30751 31.1195 7.55366 30.577 8.63563C30.0344 9.71761 29.1529 10.5688 28.082 11.0448L29.7301 22.3136C30.4839 22.5705 31.1694 23.011 31.7311 23.599C32.2928 24.1871 32.7148 24.9063 32.9628 25.6982C33.2108 26.4901 33.2779 27.3324 33.1585 28.1567C33.0392 28.981 32.7368 29.7641 32.2759 30.4423C31.8151 31.1205 31.2087 31.6749 30.5061 32.0602C29.8034 32.4456 29.0243 32.6512 28.232 32.6603C27.4397 32.6694 26.6565 32.4817 25.9461 32.1126C25.2356 31.7434 24.6179 31.2031 24.1431 30.5356H10.0295C9.55451 31.2011 8.93725 31.7395 8.22773 32.1072C7.51822 32.4749 6.73638 32.6617 5.94553 32.6523C5.15468 32.6429 4.37703 32.4377 3.67557 32.0533C2.9741 31.6688 2.36852 31.1159 1.90786 30.4394C1.4472 29.7629 1.14441 28.9817 1.024 28.1591C0.903593 27.3365 0.968952 26.4957 1.21479 25.7046C1.46062 24.9136 1.88002 24.1946 2.43903 23.6058C2.99804 23.017 3.68095 22.5751 4.43246 22.3157L6.08055 11.0533C5.36519 10.7407 4.72796 10.2588 4.21839 9.64497C3.70882 9.03112 3.34065 8.30188 3.14249 7.51392C2.94433 6.72597 2.92153 5.90054 3.07586 5.10181C3.23018 4.30307 3.55747 3.55255 4.03229 2.90859C4.50711 2.26462 5.11667 1.74456 5.81357 1.38884C6.51047 1.03312 7.27594 0.851324 8.05047 0.857578C8.825 0.863832 9.58773 1.05797 10.2794 1.4249C10.971 1.79183 11.5729 2.32167 12.0383 2.97323H22.0961C22.565 2.31686 23.1727 1.78436 23.8711 1.41784C24.5694 1.05133 25.3392 0.860866 26.1196 0.861524ZM21.0826 6.15351H13.0517C13.0517 8.69773 11.3573 10.8179 9.09467 11.3395L7.49292 22.2902C8.45895 22.6065 9.31221 23.2212 9.94175 24.0546C10.5713 24.888 10.948 25.9014 11.0228 26.9631L11.0369 27.3554H23.1357C23.1355 26.2265 23.4777 25.127 24.1127 24.2171C24.7476 23.3072 25.642 22.6344 26.6656 22.2966L25.0679 11.3458C23.9977 11.1049 23.0311 10.5039 22.3143 9.63373C21.5975 8.76351 21.1694 7.67137 21.0947 6.52242L21.0826 6.15351Z" fill="#0F1251"/>
</svg>
