<svg width="42" height="42" viewBox="0 0 42 42" fill="none" xmlns="http://www.w3.org/2000/svg">
<path d="M40.9257 2.93751C40.7214 2.11772 40.3305 1.46627 39.8385 1.12582C39.5965 0.953907 39.3365 0.862723 39.0734 0.857422H29.0066C28.4726 0.857422 27.9605 1.21089 27.5829 1.84007C27.2053 2.46925 26.9932 3.3226 26.9932 4.2124C26.9932 5.10219 27.2053 5.95554 27.5829 6.58472C27.9605 7.2139 28.4726 7.56737 29.0066 7.56737H34.2212L22.9664 26.3217L16.3424 15.2503C16.1553 14.9358 15.9326 14.6862 15.6872 14.5159C15.4419 14.3456 15.1787 14.2579 14.9129 14.2579C14.6472 14.2579 14.384 14.3456 14.1386 14.5159C13.8933 14.6862 13.6706 14.9358 13.4834 15.2503L1.4032 35.3801C1.21449 35.692 1.06471 36.0631 0.96249 36.4719C0.860274 36.8807 0.807648 37.3193 0.807648 37.7621C0.807648 38.205 0.860274 38.6436 0.96249 39.0524C1.06471 39.4612 1.21449 39.8323 1.4032 40.1442C1.59037 40.4586 1.81305 40.7082 2.0584 40.8786C2.30375 41.0489 2.56691 41.1366 2.8327 41.1366C3.09848 41.1366 3.36164 41.0489 3.60699 40.8786C3.85234 40.7082 4.07502 40.4586 4.26219 40.1442L14.9129 22.3628L21.5369 33.4342C21.7241 33.7487 21.9468 33.9983 22.1921 34.1686C22.4375 34.3389 22.7006 34.4266 22.9664 34.4266C23.2322 34.4266 23.4954 34.3389 23.7407 34.1686C23.9861 33.9983 24.2088 33.7487 24.3959 33.4342L37.0601 12.2979V20.9873C37.0601 21.8771 37.2722 22.7304 37.6498 23.3596C38.0273 23.9888 38.5394 24.3422 39.0734 24.3422C39.6074 24.3422 40.1195 23.9888 40.4971 23.3596C40.8747 22.7304 41.0868 21.8771 41.0868 20.9873V4.2124C41.0836 3.77398 41.0289 3.34085 40.9257 2.93751Z" fill="#0F1251"/>
</svg>
