<svg width="41" height="41" viewBox="0 0 41 41" fill="none" xmlns="http://www.w3.org/2000/svg">
<path d="M19.3035 33.6766C19.3024 31.0338 19.8749 28.4337 20.9675 26.1187C22.0602 23.8036 23.6375 21.8491 25.5524 20.4372C27.4673 19.0253 29.6574 18.202 31.9186 18.0441C34.1798 17.8862 36.4384 18.3988 38.484 19.5341V4.58606C38.484 2.12455 36.7578 0.110596 34.6479 0.110596H3.95903C1.84917 0.110596 0.122925 2.12455 0.122925 4.58606V31.4388C0.122925 33.9003 1.84917 35.9143 3.95903 35.9143H19.4569C19.361 35.1758 19.3035 34.4374 19.3035 33.6766ZM3.95903 4.58606L19.3035 15.7747L34.6479 4.58606V9.06152L19.3035 20.2502L3.95903 9.06152V4.58606ZM29.5459 40.3897L22.756 32.4682L25.4604 29.313L29.5267 34.057L37.6593 24.569L40.4021 27.7242L29.5459 40.3897Z" fill="#0F1251"/>
</svg>
