<svg width="50" height="49" viewBox="0 0 50 49" fill="none" xmlns="http://www.w3.org/2000/svg">
<g filter="url(#filter0_d_323_339)">
<path d="M30.9165 4.96083C33.3972 7.38191 34.9498 10.5599 35.3146 13.9633C35.6795 17.3666 34.8344 20.7889 32.9208 23.6576C33.2549 23.9289 33.5332 24.2274 33.923 24.4988C34.4797 24.933 35.2313 25.4757 36.1778 26.0998C37.1243 26.7511 37.7367 27.1581 38.0151 27.3752C39.1842 28.2164 40.0472 28.922 40.6318 29.4918C41.5226 30.3602 42.302 31.2557 42.9701 32.2054C43.666 33.1552 44.195 34.0778 44.6125 35.0276C45.0022 35.9773 45.1971 36.8728 45.1136 37.7412C45.0579 38.6095 44.7239 39.3422 44.1114 39.9392C43.499 40.5362 42.7474 40.8618 41.8566 40.9161C40.9937 40.9704 40.0472 40.8076 39.1007 40.4005C38.1264 40.0206 37.1521 39.4779 36.2056 38.7995C35.2313 38.1482 34.3127 37.3884 33.4219 36.5201C32.8373 35.9502 32.1135 35.109 31.2784 33.9964C31 33.6436 30.5825 33.0467 29.9701 32.2054C29.3576 31.3371 28.8566 30.6587 28.4112 30.0888C27.9658 29.5461 27.6039 29.1391 27.1863 28.732C24.2969 30.2068 21.0001 30.7442 17.7757 30.2659C14.5513 29.7876 11.5676 28.3186 9.25905 26.0727C3.30185 20.2384 3.30185 10.7679 9.25905 4.96083C10.6805 3.57354 12.3685 2.47299 14.2266 1.7221C16.0847 0.971211 18.0764 0.584717 20.0878 0.584717C22.0992 0.584717 24.0909 0.971211 25.949 1.7221C27.8071 2.47299 29.4951 3.57354 30.9165 4.96083ZM26.9915 22.2194C28.81 20.4336 29.8306 18.0194 29.8306 15.5032C29.8306 12.9869 28.81 10.5727 26.9915 8.78701C26.0877 7.90336 25.0138 7.20225 23.8316 6.72387C22.6493 6.24549 21.3818 5.99925 20.1017 5.99925C18.8216 5.99925 17.5541 6.24549 16.3719 6.72387C15.1896 7.20225 14.1158 7.90336 13.212 8.78701C12.3055 9.66805 11.5862 10.7148 11.0955 11.8673C10.6048 13.0198 10.3521 14.2554 10.3521 15.5032C10.3521 16.751 10.6048 17.9866 11.0955 19.1391C11.5862 20.2916 12.3055 21.3383 13.212 22.2194C14.1158 23.103 15.1896 23.8041 16.3719 24.2825C17.5541 24.7609 18.8216 25.0071 20.1017 25.0071C21.3818 25.0071 22.6493 24.7609 23.8316 24.2825C25.0138 23.8041 26.0877 23.103 26.9915 22.2194Z" fill="#F5F5F5"/>
<path d="M32.5049 23.3801L32.2523 23.7587L32.6056 24.0457C32.7211 24.1395 32.8264 24.2342 32.9429 24.3391C32.9832 24.3753 33.0248 24.4127 33.0686 24.4517C33.2307 24.5959 33.4116 24.751 33.6259 24.9012C34.1928 25.3427 34.9505 25.8893 35.8984 26.5145C36.1892 26.7146 36.4456 26.8897 36.6691 27.0424C37.1844 27.3944 37.5246 27.6268 37.7076 27.7695L37.7152 27.7754L37.723 27.7811C38.8821 28.6151 39.7231 29.3043 40.2828 29.8499C41.1549 30.7 41.9134 31.5722 42.5612 32.4931L42.5611 32.4932L42.5668 32.501C43.2407 33.4206 43.7504 34.31 44.1523 35.2231C44.5219 36.1256 44.6888 36.9347 44.6159 37.6933L44.6151 37.7013L44.6146 37.7092C44.5667 38.4564 44.2846 39.0722 43.7624 39.5812C43.2398 40.0906 42.603 40.3697 41.8262 40.417L41.8252 40.4171C41.047 40.466 40.1787 40.3199 39.2983 39.9412L39.2904 39.9378L39.2824 39.9347C38.3524 39.5721 37.4146 39.0509 36.4969 38.3931L36.4903 38.3884L36.4835 38.3838C35.5381 37.7519 34.643 37.0121 33.7709 36.162C33.2113 35.6166 32.5047 34.7973 31.6783 33.6963L31.6784 33.6962L31.6709 33.6867C31.494 33.4625 31.2603 33.138 30.9454 32.7009C30.7795 32.4705 30.591 32.2089 30.3765 31.9142C29.7618 31.0428 29.2564 30.3583 28.8051 29.7809L28.8052 29.7808L28.7977 29.7716C28.3452 29.2203 27.9705 28.7982 27.5353 28.374L27.2785 28.1236L26.959 28.2867C24.1628 29.714 20.9711 30.2344 17.849 29.7713C14.7272 29.3082 11.8404 27.8863 9.60811 25.7147C3.85144 20.076 3.85291 10.929 9.60807 5.31886L9.60828 5.31865C10.9827 3.97723 12.6156 2.91241 14.4139 2.18568C16.2123 1.45894 18.1403 1.08472 20.0878 1.08472C22.0352 1.08472 23.9633 1.45894 25.7616 2.18568C27.56 2.91241 29.1929 3.97723 30.5673 5.31865C32.9659 7.65965 34.4652 10.7304 34.8175 14.0166C35.1697 17.3026 34.3541 20.608 32.5049 23.3801ZM27.341 22.5769L27.3418 22.5761C29.2547 20.6978 30.3306 18.1556 30.3306 15.5032C30.3306 12.8508 29.2547 10.3086 27.3418 8.43025L27.341 8.4295C26.3902 7.49988 25.2612 6.76296 24.0191 6.26038C22.777 5.75779 21.4458 5.49925 20.1017 5.49925C18.7576 5.49925 17.4264 5.75779 16.1843 6.26038C14.9424 6.76287 13.8137 7.4996 12.8629 8.42898C11.9095 9.35575 11.1524 10.4575 10.6355 11.6714C10.1185 12.8856 9.85214 14.1878 9.85214 15.5032C9.85214 16.8186 10.1185 18.1208 10.6355 19.335C11.1523 20.5487 11.9093 21.6502 12.8624 22.5769C13.8132 23.5065 14.9422 24.2434 16.1843 24.746C17.4264 25.2486 18.7576 25.5071 20.1017 25.5071C21.4458 25.5071 22.777 25.2486 24.0191 24.746C25.2612 24.2434 26.3902 23.5065 27.341 22.5769Z" stroke="#F5F5F5"/>
</g>
<defs>
<filter id="filter0_d_323_339" x="0.791153" y="0.584717" width="48.3415" height="48.3416" filterUnits="userSpaceOnUse" color-interpolation-filters="sRGB">
<feFlood flood-opacity="0" result="BackgroundImageFix"/>
<feColorMatrix in="SourceAlpha" type="matrix" values="0 0 0 0 0 0 0 0 0 0 0 0 0 0 0 0 0 0 127 0" result="hardAlpha"/>
<feOffset dy="4"/>
<feGaussianBlur stdDeviation="2"/>
<feComposite in2="hardAlpha" operator="out"/>
<feColorMatrix type="matrix" values="0 0 0 0 0 0 0 0 0 0 0 0 0 0 0 0 0 0 0.25 0"/>
<feBlend mode="normal" in2="BackgroundImageFix" result="effect1_dropShadow_323_339"/>
<feBlend mode="normal" in="SourceGraphic" in2="effect1_dropShadow_323_339" result="shape"/>
</filter>
</defs>
</svg>
