<svg width="43" height="43" viewBox="0 0 43 43" fill="none" xmlns="http://www.w3.org/2000/svg">
<path d="M10.0738 1.25562H3.36066C2.76717 1.25562 2.198 1.78608 1.77834 2.7303C1.35868 3.67453 1.12292 4.95517 1.12292 6.29051V16.3603C1.12292 17.6956 1.35868 18.9763 1.77834 19.9205C2.198 20.8647 2.76717 21.3952 3.36066 21.3952H7.83612C8.4296 21.3952 8.99877 21.9257 9.41843 22.8699C9.83809 23.8141 10.0738 25.0947 10.0738 26.4301V36.4999C10.0738 37.8352 9.83809 39.1159 9.41843 40.0601C8.99877 41.0043 8.4296 41.5348 7.83612 41.5348H1.12292M25.738 41.5348H16.787V1.25562H25.738M19.0248 21.3952H23.5002" stroke="#0F1251" stroke-width="1.87345" stroke-linecap="round" stroke-linejoin="round"/>
<path d="M39.1643 1.25562H34.6888C33.453 1.25562 32.4511 3.50981 32.4511 6.29051V36.4999C32.4511 39.2806 33.453 41.5348 34.6888 41.5348H39.1643C40.4002 41.5348 41.402 39.2806 41.402 36.4999V6.29051C41.402 3.50981 40.4002 1.25562 39.1643 1.25562Z" stroke="#0F1251" stroke-width="1.87345" stroke-linecap="round" stroke-linejoin="round"/>
</svg>
