<svg width="42" height="41" viewBox="0 0 42 41" fill="none" xmlns="http://www.w3.org/2000/svg">
<path d="M21.0732 0.255615C9.95102 0.255615 0.934174 9.27223 0.934174 20.3947C0.934174 25.6401 2.9409 30.4167 6.22675 33.9994C7.53426 32.5119 9.11359 31.2875 10.88 30.3919C13.0655 29.2791 15.4842 28.7017 17.9366 28.7075C21.8624 28.704 25.6449 30.1819 28.5285 32.8458C29.9229 34.1332 31.0706 35.6645 31.915 37.3641C37.5045 33.7846 41.2133 27.5254 41.2133 20.3947C41.2133 9.27223 32.1965 0.255615 21.0732 0.255615ZM30.6101 28.2164C30.5097 28.3613 30.3817 28.485 30.2334 28.5805C30.0851 28.6759 29.9195 28.7412 29.7459 28.7725C29.5724 28.8039 29.3944 28.8008 29.2221 28.7633C29.0498 28.7258 28.8866 28.6547 28.7418 28.5541C25.6031 26.3713 21.8702 25.2042 18.0471 25.2105C15.824 25.2105 13.6484 25.5947 11.5818 26.3522C11.4163 26.4131 11.2403 26.4407 11.0641 26.4335C10.8878 26.4263 10.7147 26.3844 10.5547 26.3102C10.3947 26.236 10.2509 26.1309 10.1315 26.0011C10.0122 25.8712 9.91958 25.7191 9.8591 25.5534C9.79843 25.3878 9.77096 25.2119 9.77828 25.0357C9.78559 24.8596 9.82753 24.6865 9.90172 24.5266C9.9759 24.3666 10.0809 24.2228 10.2106 24.1034C10.3404 23.984 10.4924 23.8913 10.658 23.8307C13.025 22.9643 15.5265 22.5229 18.0471 22.5268C22.4169 22.5199 26.6836 23.8532 30.2719 26.3471C30.5645 26.5501 30.7646 26.8612 30.828 27.2117C30.8914 27.5622 30.813 27.9236 30.6101 28.2164ZM33.5396 22.0234C33.4347 22.1918 33.2976 22.3378 33.1362 22.4531C32.9747 22.5685 32.7921 22.6508 32.5988 22.6954C32.4054 22.74 32.2052 22.746 32.0095 22.7131C31.8139 22.6802 31.6266 22.609 31.4585 22.5036C27.4365 19.9917 22.7891 18.6618 18.0471 18.6658C15.4037 18.6658 12.7969 19.0722 10.2986 19.8752C9.91862 19.9913 9.50825 19.9531 9.15624 19.7689C8.80423 19.5848 8.53888 19.2694 8.41759 18.8911C8.29631 18.5128 8.32884 18.102 8.50816 17.7475C8.68747 17.393 8.99915 17.1233 9.37575 16.9968C12.1788 16.099 15.1044 15.6428 18.0476 15.6444C23.3556 15.6403 28.5577 17.1295 33.0594 19.9418C33.2276 20.0469 33.3735 20.1842 33.4887 20.3457C33.6038 20.5072 33.6861 20.6898 33.7307 20.8831C33.7753 21.0764 33.7813 21.2766 33.7486 21.4722C33.7158 21.6679 33.6448 21.8551 33.5396 22.0234ZM35.0186 16.6519C34.7294 16.6519 34.4371 16.577 34.1702 16.42C29.2802 13.5543 23.7144 12.0447 18.0466 12.0468C14.9792 12.0468 11.9423 12.4847 9.01944 13.346C8.80799 13.4083 8.58635 13.4283 8.36716 13.4049C8.14798 13.3816 7.93554 13.3153 7.74198 13.2098C7.54842 13.1043 7.37753 12.9618 7.23907 12.7903C7.10061 12.6188 6.99728 12.4217 6.93499 12.2102C6.87271 11.9988 6.85267 11.7771 6.87605 11.558C6.89942 11.3388 6.96573 11.1263 7.0712 10.9328C7.17667 10.7392 7.31923 10.5683 7.49075 10.4299C7.66226 10.2914 7.85937 10.1881 8.07081 10.1258C11.3103 9.17289 14.6698 8.68962 18.0466 8.69078C24.3204 8.69078 30.4841 10.3628 35.8696 13.5267C36.1872 13.7134 36.4346 13.9994 36.5736 14.3405C36.7126 14.6817 36.7354 15.0591 36.6387 15.4146C36.5419 15.77 36.3308 16.0838 36.038 16.3074C35.7452 16.531 35.387 16.6521 35.0186 16.6519ZM23.6082 38.1816C22.0645 36.7545 20.0389 35.9628 17.9366 35.9647C16.61 35.9647 15.3397 36.2673 14.1607 36.8664C13.3813 37.2634 12.6694 37.7808 12.0512 38.3995C14.8505 39.8063 17.9404 40.5376 21.0732 40.5348C22.4449 40.5355 23.813 40.3962 25.1564 40.1191C24.7399 39.3996 24.2181 38.7466 23.6082 38.1816Z" fill="#0F1251"/>
</svg>
